<svg width="88" height="27" viewBox="0 0 88 27" fill="none" xmlns="http://www.w3.org/2000/svg">
<g clip-path="url(#clip0)">
<path d="M26.9947 6.65895C26.9632 6.36854 26.7827 6.11151 26.513 5.98563L13.8567 0.0793852C13.6306 -0.0261362 13.3693 -0.0261362 13.1431 0.0793852L0.486896 5.98563C0.217213 6.11151 0.0367559 6.36849 0.00516797 6.65895C0.00448242 6.66501 0 6.7458 0 6.75023V21.094C0 21.439 0.210041 21.7493 0.530402 21.8773L13.1867 26.9398C13.2872 26.9801 13.3936 27.0002 13.5 27.0002C13.6064 27.0002 13.7128 26.9801 13.8133 26.9398L26.4696 21.8773C26.79 21.7493 27 21.439 27 21.094V6.75023C27 6.7458 26.9954 6.66496 26.9947 6.65895ZM13.5 1.77506L24.0334 6.69064L19.9774 8.31307L9.24576 3.7604L13.5 1.77506ZM7.18822 4.72059L17.7533 9.20264L13.5 10.904L2.96662 6.69064L7.18822 4.72059ZM1.6875 7.99645L12.6562 12.3839V24.9102L1.6875 20.5227V7.99645ZM14.3438 24.9103V12.3839L25.3125 7.99645V20.5227L14.3438 24.9103Z" fill="#0A143A"/>
</g>
<path d="M44.1562 18.4844H37.9922L36.8203 22H33.082L39.4336 4.9375H42.6914L49.0781 22H45.3398L44.1562 18.4844ZM38.9414 15.6367H43.207L41.0625 9.25L38.9414 15.6367Z" fill="#0A143A"/>
<path d="M54.6094 17.8633L56.9648 9.32031H60.5039L56.2266 22H52.9922L48.7148 9.32031H52.2539L54.6094 17.8633Z" fill="#0A143A"/>
<path d="M65.5781 22H62.1797V9.32031H65.5781V22ZM61.9805 6.03906C61.9805 5.53125 62.1484 5.11328 62.4844 4.78516C62.8281 4.45703 63.293 4.29297 63.8789 4.29297C64.457 4.29297 64.918 4.45703 65.2617 4.78516C65.6055 5.11328 65.7773 5.53125 65.7773 6.03906C65.7773 6.55469 65.6016 6.97656 65.25 7.30469C64.9062 7.63281 64.4492 7.79688 63.8789 7.79688C63.3086 7.79688 62.8477 7.63281 62.4961 7.30469C62.1523 6.97656 61.9805 6.55469 61.9805 6.03906Z" fill="#0A143A"/>
<path d="M72.4336 6.20312V9.32031H74.6016V11.8047H72.4336V18.1328C72.4336 18.6016 72.5234 18.9375 72.7031 19.1406C72.8828 19.3438 73.2266 19.4453 73.7344 19.4453C74.1094 19.4453 74.4414 19.418 74.7305 19.3633V21.9297C74.0664 22.1328 73.3828 22.2344 72.6797 22.2344C70.3047 22.2344 69.0938 21.0352 69.0469 18.6367V11.8047H67.1953V9.32031H69.0469V6.20312H72.4336Z" fill="#0A143A"/>
<path d="M75.6094 15.543C75.6094 14.2852 75.8516 13.1641 76.3359 12.1797C76.8203 11.1953 77.5156 10.4336 78.4219 9.89453C79.3359 9.35547 80.3945 9.08594 81.5977 9.08594C83.3086 9.08594 84.7031 9.60938 85.7812 10.6562C86.8672 11.7031 87.4727 13.125 87.5977 14.9219L87.6211 15.7891C87.6211 17.7344 87.0781 19.2969 85.9922 20.4766C84.9062 21.6484 83.4492 22.2344 81.6211 22.2344C79.793 22.2344 78.332 21.6484 77.2383 20.4766C76.1523 19.3047 75.6094 17.7109 75.6094 15.6953V15.543ZM78.9961 15.7891C78.9961 16.9922 79.2227 17.9141 79.6758 18.5547C80.1289 19.1875 80.7773 19.5039 81.6211 19.5039C82.4414 19.5039 83.082 19.1914 83.543 18.5664C84.0039 17.9336 84.2344 16.9258 84.2344 15.543C84.2344 14.3633 84.0039 13.4492 83.543 12.8008C83.082 12.1523 82.4336 11.8281 81.5977 11.8281C80.7695 11.8281 80.1289 12.1523 79.6758 12.8008C79.2227 13.4414 78.9961 14.4375 78.9961 15.7891Z" fill="#0A143A"/>
<defs>
<clipPath id="clip0">
<rect width="27" height="27" fill="white"/>
</clipPath>
</defs>
</svg>
